<?xml version="1.0" encoding="utf-8"?>
<!-- Generator: Adobe Illustrator 16.0.0, SVG Export Plug-In . SVG Version: 6.00 Build 0)  -->
<!DOCTYPE svg PUBLIC "-//W3C//DTD SVG 1.1//EN" "http://www.w3.org/Graphics/SVG/1.1/DTD/svg11.dtd">
<svg version="1.1" id="Layer_1" xmlns="http://www.w3.org/2000/svg" xmlns:xlink="http://www.w3.org/1999/xlink" x="0px" y="0px"
	 viewBox="0 0 500 500" enable-background="new 0 0 500 500" xml:space="preserve">
<g>
	<g>
		<path fill="none" stroke="#231F20" stroke-width="3" stroke-miterlimit="10" d="M77.275,98.775
			c16.661,29.864,1.488,67.439-28.918,84.404l-0.786-1.686c-14.124-20.138,1.328-62.468,21.095-79.566"/>
		<path fill="none" stroke="#231F20" stroke-width="3" stroke-miterlimit="10" d="M67.958,82.075
			c-9.06-14.122-45.705-11.212-64.69,25.464l0.596,0.879c6.577,11.788,54.855,8.949,64.802-6.49"/>
	</g>
	<g>
		<path fill="none" stroke="#231F20" stroke-width="3" stroke-miterlimit="10" d="M87.181,87.215
			C69.651,57.853,83.715,19.849,113.61,2l1.279,1.47c14.709,19.713,0.061,62.671-19.196,80.342"/>
		<path fill="none" stroke="#231F20" stroke-width="3" stroke-miterlimit="10" d="M96.984,103.634
			c9.47,13.852,46.014,9.868,63.916-27.351l-0.372-0.797c-6.92-11.59-55.344-7.399-64.834,8.325"/>
	</g>
	<line fill="none" stroke="#231F20" stroke-width="3" stroke-miterlimit="10" x1="116.682" y1="156.096" x2="142.73" y2="162.966"/>
	
		<line fill="none" stroke="#231F20" stroke-width="3" stroke-miterlimit="10" x1="147.875" y1="163.966" x2="173.923" y2="170.837"/>
	
		<line fill="none" stroke="#231F20" stroke-width="3" stroke-miterlimit="10" x1="179.088" y1="171.837" x2="205.137" y2="178.708"/>
	
		<line fill="none" stroke="#231F20" stroke-width="3" stroke-miterlimit="10" x1="209.277" y1="179.745" x2="227.326" y2="185.615"/>
	
		<line fill="none" stroke="#231F20" stroke-width="3" stroke-miterlimit="10" x1="231.553" y1="187.615" x2="250.602" y2="198.486"/>
	<line fill="none" stroke="#231F20" stroke-width="3" stroke-miterlimit="10" x1="422.904" y1="409.76" x2="448.364" y2="419.934"/>
	
		<line fill="none" stroke="#231F20" stroke-width="3" stroke-miterlimit="10" x1="453.396" y1="421.934" x2="476.856" y2="427.107"/>
	<line fill="none" stroke="#231F20" stroke-width="3" stroke-miterlimit="10" x1="483.132" y1="428.107" x2="498" y2="428.281"/>
	<line fill="none" stroke="#231F20" stroke-width="3" stroke-miterlimit="10" x1="394.916" y1="389.247" x2="417.12" y2="406.06"/>
	
		<line fill="none" stroke="#231F20" stroke-width="3" stroke-miterlimit="10" x1="371.463" y1="366.825" x2="390.344" y2="384.451"/>
	
		<line fill="none" stroke="#231F20" stroke-width="3" stroke-miterlimit="10" x1="343.534" y1="340.424" x2="365.853" y2="361.326"/>
	
		<line fill="none" stroke="#231F20" stroke-width="3" stroke-miterlimit="10" x1="319.962" y1="319.156" x2="339.402" y2="336.465"/>
	
		<line fill="none" stroke="#231F20" stroke-width="3" stroke-miterlimit="10" x1="292.512" y1="297.475" x2="313.953" y2="313.784"/>
	
		<line fill="none" stroke="#231F20" stroke-width="3" stroke-miterlimit="10" x1="246.331" y1="264.211" x2="267.771" y2="277.521"/>
	<line fill="none" stroke="#231F20" stroke-width="3" stroke-miterlimit="10" x1="213.229" y1="250.407" x2="240.62" y2="261.218"/>
	<line fill="none" stroke="#231F20" stroke-width="3" stroke-miterlimit="10" x1="180.55" y1="251.407" x2="206.507" y2="249.674"/>
	<line fill="none" stroke="#231F20" stroke-width="3" stroke-miterlimit="10" x1="148.828" y1="259.641" x2="172.08" y2="252.443"/>
	
		<line fill="none" stroke="#231F20" stroke-width="3" stroke-miterlimit="10" x1="120.442" y1="277.315" x2="143.883" y2="262.499"/>
	<line fill="none" stroke="#231F20" stroke-width="3" stroke-miterlimit="10" x1="102.853" y1="297.514" x2="116.464" y2="281.62"/>
	<line fill="none" stroke="#231F20" stroke-width="3" stroke-miterlimit="10" x1="95.694" y1="320.156" x2="99.82" y2="303.304"/>
	<line fill="none" stroke="#231F20" stroke-width="3" stroke-miterlimit="10" x1="95.694" y1="342.424" x2="95.694" y2="328.038"/>
	
		<line fill="none" stroke="#231F20" stroke-width="3" stroke-miterlimit="10" x1="265.844" y1="339.814" x2="276.332" y2="315.002"/>
	<line fill="none" stroke="#231F20" stroke-width="3" stroke-miterlimit="10" x1="279.332" y1="304.973" x2="284.82" y2="283.16"/>
	<line fill="none" stroke="#231F20" stroke-width="3" stroke-miterlimit="10" x1="284.82" y1="278.117" x2="282.309" y2="256.305"/>
	
		<line fill="none" stroke="#231F20" stroke-width="3" stroke-miterlimit="10" x1="281.588" y1="250.407" x2="271.076" y2="228.595"/>
	<line fill="none" stroke="#231F20" stroke-width="3" stroke-miterlimit="10" x1="268.1" y1="223.2" x2="254.588" y2="203.388"/>
	
		<line fill="none" stroke="#231F20" stroke-width="3" stroke-miterlimit="10" x1="240.577" y1="372.351" x2="258.537" y2="348.605"/>
	
		<line fill="none" stroke="#231F20" stroke-width="3" stroke-miterlimit="10" x1="206.097" y1="389.977" x2="230.472" y2="380.307"/>
	<line fill="none" stroke="#231F20" stroke-width="3" stroke-miterlimit="10" x1="174.48" y1="398.61" x2="198.232" y2="393.29"/>
	
		<line fill="none" stroke="#231F20" stroke-width="3" stroke-miterlimit="10" x1="141.562" y1="398.262" x2="168.272" y2="397.723"/>
	
		<line fill="none" stroke="#231F20" stroke-width="3" stroke-miterlimit="10" x1="116.753" y1="390.354" x2="136.467" y2="397.373"/>
	<line fill="none" stroke="#231F20" stroke-width="3" stroke-miterlimit="10" x1="101.282" y1="373.271" x2="112.244" y2="385.84"/>
	<line fill="none" stroke="#231F20" stroke-width="3" stroke-miterlimit="10" x1="95.396" y1="347.549" x2="98.282" y2="366.825"/>
	<g>
		<line fill="none" stroke="#231F20" stroke-width="3" stroke-miterlimit="10" x1="59.621" y1="52.047" x2="109.219" y2="144.487"/>
		<line fill="none" stroke="#231F20" stroke-width="3" stroke-miterlimit="10" x1="56.747" y1="55.089" x2="63.674" y2="47.281"/>
		<path fill="none" stroke="#231F20" stroke-width="3" stroke-miterlimit="10" d="M107.864,150.244
			c-0.928-1.662-1.269-7.136,6.834-7.818"/>
		<path fill="none" stroke="#231F20" stroke-width="3" stroke-miterlimit="10" d="M63.674,47.281l-2.528-4.536l-0.093-0.164
			c-0.459-0.823-1.458-1.139-2.233-0.706l-0.139,0.126l-5.129,4.616l-0.191,0.243c-0.401,0.36-0.417,1.408,0.195,2.505l0.061,0.109
			l3.132,5.615"/>
		<g id="XMLID_1_">
			<g>
				<path fill="#231F20" d="M115.982,151.939l0.425,3.66l-0.07-0.045l-2.719-1.665C113.47,153.624,113.501,152.157,115.982,151.939z
					"/>
			</g>
			<g>
				<polyline fill="none" stroke="#231F20" stroke-width="3" stroke-miterlimit="10" points="56.75,55.085 107.959,150.419 
					108.008,150.449 113.618,153.889 116.337,155.554 116.407,155.599 115.982,151.939 114.898,142.689 114.887,142.612 
					63.56,47.067 				"/>
				<path fill="none" stroke="#231F20" stroke-width="3" stroke-miterlimit="10" d="M113.618,153.889
					c-0.148-0.265-0.116-1.732,2.364-1.95"/>
			</g>
		</g>
	</g>
</g>
</svg>
