<?xml version="1.0" encoding="utf-8"?>
<!-- Generator: Adobe Illustrator 16.0.0, SVG Export Plug-In . SVG Version: 6.00 Build 0)  -->
<!DOCTYPE svg PUBLIC "-//W3C//DTD SVG 1.1//EN" "http://www.w3.org/Graphics/SVG/1.1/DTD/svg11.dtd">
<svg version="1.1" id="Layer_1" xmlns="http://www.w3.org/2000/svg" xmlns:xlink="http://www.w3.org/1999/xlink" x="0px" y="0px"
	  viewBox="0 0 250 250" enable-background="new 0 0 250 250" xml:space="preserve">
<g>
	<g>
		<path fill="none" stroke="#231F20" stroke-width="3" stroke-miterlimit="10" d="M90.768,127.122
			c3.021,41.438-32.973,75.033-75.166,78.109v-2.26c-5.219-29.425,33.523-68.111,64.066-76.796"/>
		<path fill="none" stroke="#231F20" stroke-width="3" stroke-miterlimit="10" d="M89.08,103.949
			c-2.73-20.201-44.578-35.805-84.311-5.158l0.206,1.274c1.192,16.357,55.817,38.009,74.694,26.111"/>
	</g>
	<g>
		<path fill="none" stroke="#231F20" stroke-width="3" stroke-miterlimit="10" d="M107.61,119.476
			c-4.235-41.333,30.758-75.968,72.841-80.281l0.655,2.275c6.081,29.259-32.098,69.048-62.374,78.625"/>
		<path fill="none" stroke="#231F20" stroke-width="3" stroke-miterlimit="10" d="M109.979,142.587
			c3.32,20.115,45.609,34.484,84.425,2.684v-1.067c-1.672-16.315-57.151-36.553-75.672-24.107"/>
	</g>
	
		<line fill="none" stroke="#231F20" stroke-width="3" stroke-miterlimit="10" x1="104.747" y1="210.473" x2="246.369" y2="206.273"/>
	<g>
		<line fill="none" stroke="#231F20" stroke-width="3" stroke-miterlimit="10" x1="95.309" y1="66.601" x2="102.486" y2="193.856"/>
		<line fill="none" stroke="#231F20" stroke-width="3" stroke-miterlimit="10" x1="90.583" y1="68.476" x2="102.219" y2="63.432"/>
		<path fill="none" stroke="#231F20" stroke-width="3" stroke-miterlimit="10" d="M98.04,199.502
			c-0.169-2.307,2.265-8.51,11.538-5.104"/>
		<path fill="none" stroke="#231F20" stroke-width="3" stroke-miterlimit="10" d="M102.219,63.432l-0.457-6.293l-0.019-0.229
			c-0.083-1.142-1.021-2.002-2.097-1.923l-0.218,0.068l-8.019,2.451l-0.335,0.17c-0.626,0.191-1.183,1.337-1.071,2.859l0.011,0.15
			l0.568,7.792"/>
		<g id="XMLID_1_">
			<g>
				<path fill="#231F20" d="M106.104,205.537l-1.41,4.248l-0.054-0.085l-2.14-3.229
					C102.473,206.104,103.261,204.504,106.104,205.537z"/>
			</g>
			<g>
				<polyline fill="none" stroke="#231F20" stroke-width="3" stroke-miterlimit="10" points="90.583,68.476 98.049,199.745 
					98.088,199.805 102.5,206.472 104.64,209.7 104.694,209.785 106.104,205.537 109.658,194.795 109.686,194.704 102.198,63.141 
									"/>
				<path fill="none" stroke="#231F20" stroke-width="3" stroke-miterlimit="10" d="M102.5,206.472
					c-0.027-0.368,0.761-1.968,3.604-0.935"/>
			</g>
		</g>
	</g>
</g>
</svg>
